<svg width="98" height="32" viewBox="0 0 98 32" fill="none" xmlns="http://www.w3.org/2000/svg">
<g clip-path="url(#clip0_675_16725)">
<path d="M1.41567 29.973C0.805224 29.973 0.5 29.732 0.5 29.2502V29.0981C0.5 28.7937 0.754353 28.3372 1.26306 27.7287C1.77176 27.0947 2.02612 26.4607 2.02612 25.8267V7.11158C2.02612 6.4776 1.77176 5.85629 1.26306 5.24767C0.754353 4.61369 0.5 4.14455 0.5 3.84023V3.68808C0.5 3.20625 0.805224 2.96533 1.41567 2.96533H10.4198C15.7357 2.96533 19.869 4.22063 22.8195 6.73119C25.7954 9.24175 27.2834 12.5385 27.2834 16.6213C27.2834 20.6027 25.9099 23.8233 23.1629 26.2832C20.4413 28.743 16.8294 29.973 12.3274 29.973H1.41567ZM12.1748 27.3102H13.7009C15.5832 27.3102 17.1093 26.6636 18.2793 25.3703C19.4493 24.0769 20.0343 22.2258 20.0343 19.8166C20.0343 17.3567 19.6528 15.049 18.8897 12.8935C18.1267 10.7126 17.0457 8.96281 15.6467 7.64413C14.2478 6.30008 12.6962 5.62806 10.9921 5.62806H10.5724C9.4278 5.62806 8.85551 6.23668 8.85551 7.45393V23.3923C8.85551 24.6348 9.14802 25.5984 9.73303 26.2832C10.318 26.9678 11.132 27.3102 12.1748 27.3102Z" fill="#0D2A6B"/>
<path d="M44.8548 23.9624C45.1346 23.6835 45.4399 23.6074 45.7705 23.7341C46.1266 23.8356 46.2919 24.0893 46.2665 24.4949C46.2156 25.7629 45.478 27.0562 44.0536 28.375C42.6293 29.6936 40.7851 30.353 38.5215 30.353C35.749 30.353 33.4853 29.4654 31.7302 27.6902C29.9752 25.915 29.0977 23.5948 29.0977 20.7291C29.0977 17.9903 30.0133 15.746 31.8447 13.9962C33.7014 12.2211 35.9144 11.3335 38.4833 11.3335C40.7979 11.3335 42.591 11.866 43.8629 12.9311C45.1346 13.9962 45.7705 15.2008 45.7705 16.5448C45.7705 17.6099 45.2745 18.3961 44.2825 18.9032L36.6901 23.1636C37.7329 24.8119 39.1828 25.6362 41.0395 25.6362C41.828 25.6362 42.5657 25.4839 43.2525 25.1797C43.9646 24.85 44.4987 24.4443 44.8548 23.9624ZM37.7965 13.1974C37.0335 13.1974 36.4103 13.5777 35.927 14.3386C35.4692 15.0994 35.2403 16.0503 35.2403 17.1915C35.2403 18.7131 35.4311 20.0445 35.8126 21.1856L39.3608 19.0554C40.0221 18.5989 40.3527 17.9523 40.3527 17.1154C40.3527 16.2785 40.1366 15.4164 39.7042 14.5287C39.2973 13.6412 38.6613 13.1974 37.7965 13.1974Z" fill="#0D2A6B"/>
<path d="M66.0016 25.8263C66.0778 26.4349 66.2177 26.9294 66.4212 27.3098C66.6501 27.6648 66.8664 27.8931 67.0698 27.9946C67.2988 28.096 67.5022 28.2228 67.6803 28.375C67.8583 28.5271 67.9473 28.7172 67.9473 28.9455C67.9473 29.7824 66.5102 30.2007 63.636 30.2007C62.466 30.2007 61.5885 30.0614 61.0035 29.7824C60.4439 29.5034 60.0878 29.0342 59.9352 28.375C58.9686 29.6936 57.3535 30.353 55.0898 30.353C52.9533 30.353 51.2109 29.8585 49.8628 28.8695C48.5402 27.8804 47.8789 26.4477 47.8789 24.571C47.8789 22.7451 48.5402 21.3251 49.8628 20.3107C51.1855 19.2709 52.8134 18.7511 54.7464 18.7511C56.247 18.7511 57.5315 19.0681 58.5999 19.7021V19.5879C58.3456 17.0774 58.053 15.3783 57.7224 14.4907C57.4171 13.6031 56.8067 13.1594 55.891 13.1594C55.306 13.1594 54.8354 13.4256 54.4794 13.9582C54.1232 14.4907 53.8562 15.074 53.6781 15.708C53.5256 16.3419 53.2203 16.9252 52.7625 17.4578C52.3046 17.9903 51.6942 18.2566 50.9311 18.2566C50.1427 18.2566 49.494 18.0283 48.9853 17.5719C48.502 17.1154 48.2604 16.5195 48.2604 15.784C48.2604 14.3132 48.9981 13.2101 50.4733 12.4747C51.9486 11.7139 53.7545 11.3335 55.891 11.3335C58.4346 11.3335 60.533 12.0308 62.1863 13.4256C63.865 14.795 64.857 16.6589 65.1621 19.0173L66.0016 25.8263ZM57.1882 28.413C57.7733 28.413 58.2438 28.134 58.5999 27.5761C58.9814 27.0182 59.1721 26.3842 59.1721 25.6742L59.0195 23.9244C58.7652 21.8196 57.9767 20.7671 56.6541 20.7671C56.069 20.7671 55.5985 21.0081 55.2423 21.4899C54.8863 21.9464 54.7083 22.5676 54.7083 23.3538C54.7083 24.7739 54.9244 25.9784 55.3568 26.9674C55.8146 27.9311 56.4252 28.413 57.1882 28.413Z" fill="#0D2A6B"/>
<path d="M69.6178 29.9726C69.0328 29.9726 68.7402 29.7316 68.7402 29.2499V29.0978C68.7402 28.7934 68.9819 28.3369 69.4652 27.7284C69.9738 27.0944 70.2282 26.4603 70.2282 25.8263V7.92152C70.2282 7.26218 69.9738 6.6282 69.4652 6.01958C68.9819 5.38559 68.7402 4.94181 68.7402 4.68822V4.53605C68.7402 4.25711 69.0201 3.96547 69.5797 3.66116L75.3408 0.846283C75.8749 0.61805 76.2946 0.60537 76.5997 0.808245C76.9305 0.985759 77.0958 1.26471 77.0958 1.6451V25.8263C77.0958 26.4603 77.3755 27.0944 77.9351 27.7284C78.4947 28.3369 78.7745 28.7934 78.7745 29.0978V29.2499C78.7745 29.7316 78.4693 29.9726 77.8588 29.9726H69.6178Z" fill="#0D2A6B"/>
<path d="M96.0858 23.9624C96.3656 23.6835 96.6708 23.6074 97.0014 23.7341C97.3576 23.8356 97.523 24.0893 97.4975 24.4949C97.4466 25.7629 96.709 27.0562 95.2845 28.375C93.8602 29.6936 92.0161 30.353 89.7524 30.353C86.98 30.353 84.7162 29.4654 82.9612 27.6902C81.2062 25.915 80.3286 23.5948 80.3286 20.7291C80.3286 17.9903 81.2443 15.746 83.0757 13.9962C84.9325 12.2211 87.1453 11.3335 89.7142 11.3335C92.0289 11.3335 93.822 11.866 95.0938 12.9311C96.3656 13.9962 97.0014 15.2008 97.0014 16.5448C97.0014 17.6099 96.5055 18.3961 95.5135 18.9032L87.9211 23.1636C88.9639 24.8119 90.4138 25.6362 92.2705 25.6362C93.059 25.6362 93.7967 25.4839 94.4834 25.1797C95.1955 24.85 95.7297 24.4443 96.0858 23.9624ZM89.0275 13.1974C88.2645 13.1974 87.6413 13.5777 87.158 14.3386C86.7001 15.0994 86.4712 16.0503 86.4712 17.1915C86.4712 18.7131 86.662 20.0445 87.0435 21.1856L90.5918 19.0554C91.2531 18.5989 91.5838 17.9523 91.5838 17.1154C91.5838 16.2785 91.3676 15.4164 90.9352 14.5287C90.5282 13.6412 89.8922 13.1974 89.0275 13.1974Z" fill="#0D2A6B"/>
<path d="M90.0741 8.37154L83.4092 0.500001L96.6194 0.5L90.0741 8.37154Z" fill="#FFBB52"/>
</g>
<defs>
<clipPath id="clip0_675_16725">
<rect width="97" height="31" fill="white" transform="translate(0.5 0.5)"/>
</clipPath>
</defs>
</svg>
